# xmcd
#
# Track frame offsets:
#	183
#	11845
#	21860
#	32575
#	44433
#	54785
#	66218
#	76610
#	87160
#
# Disc length: 1296 seconds
#
# Revision: 1
# Processed by: cddbd v1.5.1PL0 Copyright (c) Steve Scherf et al.
# Submitted via: EasyCDDAExtractor 8.2.1.1
#
DISCID=60050e09
DTITLE=Patsy Cline - Walkin' After Midnight
DYEAR=1234
DGENRE=Country
TTITLE0=Walkin' After Midnight
TTITLE1=Walking Dream
TTITLE2=I Cried All The Way To The Altar
TTITLE3=In Care Of The Blues
TTITLE4=Three Cigarettes In The Ashtray
TTITLE5=I've Loved And Lost Again
TTITLE6=Honky Tonk Merry Go Round
TTITLE7=Stop, Look, And Listen
TTITLE8=Pick Me Up On You Way Down
EXTD=
EXTT0=
EXTT1=
EXTT2=
EXTT3=
EXTT4=
EXTT5=
EXTT6=
EXTT7=
EXTT8=
PLAYORDER=
